<svg width="67" height="88" viewBox="0 0 67 88" fill="none" xmlns="http://www.w3.org/2000/svg">
<g clip-path="url(#clip0_2_14)">
<path d="M35.3484 16.6064H62.4191C64.911 16.6064 66.9309 18.6372 66.9309 21.1424V83.2868C66.9309 85.7921 64.911 87.8229 62.4191 87.8229H39.8602C37.3685 87.8229 35.3484 85.7921 35.3484 83.2868V16.6064Z" fill="#1FAAAA"/>
<path d="M0 4.53608C0 2.03088 2.02 0 4.51178 0H30.9014C33.3933 0 35.4132 2.03087 35.4132 4.53608V71.2079H4.51178C2.02 71.2079 0 69.1771 0 66.6718V4.53608Z" fill="#FF5D3A"/>
<path d="M44.2666 26.8638H18.7691V34.6967H44.2666V26.8638Z" fill="white"/>
<path d="M52 44H12V52H52V44Z" fill="white"/>
<path d="M27.5218 16.5567L27.5218 87.7732H35.4174L35.4174 16.5567H27.5218Z" fill="white"/>
</g>
<defs>
<clipPath id="clip0_2_14">
<rect width="67" height="88" fill="white"/>
</clipPath>
</defs>
</svg>
